<svg xmlns="http://www.w3.org/2000/svg" viewBox="0 0 259.59 152.66"><defs><style>.cls-1,.cls-2{fill:#fff;}.cls-2,.cls-3{stroke:#000;stroke-linecap:round;stroke-linejoin:round;stroke-width:4px;}.cls-3{fill:none;}</style></defs><title>Asset 2</title><g id="Layer_2" data-name="Layer 2"><g id="Ponting_hand" data-name="Ponting hand"><g id="Layer_13" data-name="Layer 13"><path class="cls-1" d="M145.51,72c-.58-.12-45.46,13.09-45.46,13.09l17.82,23.73,38-12.27,8.18-10.12Z"/></g><rect x="184.17" y="6.48" width="47.78" height="103.06" transform="translate(266.06 -150.05) rotate(90)"/><path class="cls-2" d="M164.88,34.12s16.59,21,5.74,50.4"/><path class="cls-2" d="M156.54,34.64A8.35,8.35,0,0,1,171.43,29c.8,1,19.35,25.07,7,58.46a8.35,8.35,0,0,1-15.67-5.78c9.12-24.71-4.33-42.16-4.47-42.33A8.37,8.37,0,0,1,156.54,34.64Z"/><ellipse class="cls-1" cx="162.69" cy="80.55" rx="8.44" ry="5.06" transform="translate(-1.08 2.21) rotate(-0.78)"/><path class="cls-2" d="M100.33,90.4,61.24,85.68l7.09-43.56c0-32.56,29.09-51.14,64-33s37.92,53.55,33.26,73.39"/><path class="cls-2" d="M165.56,82.49c-8.35,27.52-28.47,25.35-35.69,58a12.87,12.87,0,0,1-16.22,9.61h0c-10.27-3.06-16.24-14.12-14.75-26a59.93,59.93,0,0,1,10.74-26.75"/><path class="cls-2" d="M91.41,24.6A28.35,28.35,0,0,1,80,30.35c-2.71.66-5.5.91-8.2,1.57a25.64,25.64,0,0,0-14.78,9.75,21.35,21.35,0,0,0-3.49,17.18,18.28,18.28,0,0,0,11.6,12.86"/><path class="cls-2" d="M109.52,97.35s-2.44-4.45-30.76-1.47C49,99,1.63,102.38,2,77.37S32.12,58.93,37.9,59.94C51.37,62.28,76,66.08,90.38,56.67"/><polygon class="cls-1" points="154.23 89.39 154.23 79.62 140.92 71.71 127.11 75.24 125.93 89.39 132.84 98.44 143.62 98.44 154.23 89.39"/><path class="cls-2" d="M149,33.14a28,28,0,0,0-15.72-6.57"/><path class="cls-3" d="M153.66,44.78a45.41,45.41,0,0,0-27.76-5.43"/><path class="cls-2" d="M154.77,55.32a42.78,42.78,0,0,0-22.62-.55"/></g></g></svg>