<svg xmlns="http://www.w3.org/2000/svg" viewBox="0 0 272.61 486.28"><defs><style>.cls-1,.cls-2,.cls-3,.cls-4{fill:#fff;}.cls-1,.cls-3,.cls-4{stroke:#000;stroke-width:4px;}.cls-1,.cls-3{stroke-miterlimit:10;}.cls-3,.cls-4{stroke-linecap:round;}.cls-4{stroke-linejoin:round;}</style></defs><title>Asset 3</title><g id="Layer_2" data-name="Layer 2"><g id="Lamp"><path class="cls-1" d="M108.59,420.15c0,17.09-32.26,22.36-27.47,38.81s31.3,14.38,37.53-11.82S112.1,417,112.1,417Z"/><path class="cls-1" d="M165.2,420.15c0,17.09,32.26,22.36,27.47,38.81s-31.3,14.38-37.53-11.82S161.69,417,161.69,417Z"/><path class="cls-1" d="M156.2,419c0,20,27.47,35.3,16.61,51.91s-43.93.16-32.67-47.28S156.2,419,156.2,419Z"/><path class="cls-1" d="M117.59,419c0,20-27.47,35.3-16.61,51.91s43.93.16,32.67-47.28S117.59,419,117.59,419Z"/><path class="cls-1" d="M136.1,484.28c-29.86,0-7.36-41.69-7.36-59.26h14.71C143.45,442.59,166,484.28,136.1,484.28Z"/><path class="cls-2" d="M136.1,429.67c-36.64,0-64-7.31-77-20.59-5.77-5.89-8.63-12.71-8.49-20.29C51,365.55,72,356.32,79.9,352.85l.53-.23,1.56-.68c8.18-3.51,32.9-14.12,44.58-29.9V300.45h18.64v21c11.48,16.1,36.66,26.91,45,30.48l1.56.68.53.23c7.9,3.47,28.88,12.7,29.32,35.94.14,7.58-2.71,14.4-8.49,20.29C200.09,422.36,172.73,429.67,136.1,429.67Z"/><path d="M143.21,302.45v19.64c12.51,18.12,41.93,29.79,47.74,32.36,7.22,3.18,28.24,11.89,28.66,34.38s-28.23,38.84-83.51,38.84-83.94-16.34-83.52-38.84S74,357.63,81.24,354.45c5.75-2.54,34.59-14,47.33-31.76V302.45h14.64m4-4H124.57v22.92c-11.52,15.07-35.4,25.32-43.37,28.74l-1.58.68-.52.23c-8.22,3.61-30.06,13.21-30.52,37.73-.15,8,3,15.54,9.07,21.73,6.64,6.77,16.66,12,29.78,15.63,13.42,3.69,29.8,5.56,48.67,5.56s35.24-1.87,48.66-5.56c13.12-3.6,23.14-8.86,29.79-15.63,6.08-6.19,9.21-13.71,9.06-21.72-.46-24.53-22.3-34.13-30.52-37.74l-.52-.23-1.58-.68c-31-13.31-40.4-24.56-43.78-29.28V298.45Z"/><path class="cls-2" d="M136.1,353c-18.18,0-30.44-3.31-36.43-9.84a15.69,15.69,0,0,1-4-12.46c.77-9,6-12.17,11.05-15.24,4.58-2.79,8.91-5.42,10.57-12.66l.36-1.56h37l.36,1.56c1.66,7.24,6,9.87,10.58,12.66,5,3.07,10.27,6.25,11,15.24a15.7,15.7,0,0,1-4,12.46C166.53,349.66,154.27,353,136.1,353Z"/><path d="M153,303.21c3.75,16.38,20.23,11.89,21.58,27.64S156.43,351,136.1,351s-39.84-4.38-38.48-20.12,17.83-11.26,21.58-27.64H153m3.19-4H116l-.71,3.11c-1.47,6.42-5.27,8.73-9.66,11.4-5,3-11.15,6.78-12,16.78a17.62,17.62,0,0,0,4.57,14c6.39,7,19.14,10.49,37.9,10.49s31.51-3.53,37.89-10.49a17.62,17.62,0,0,0,4.57-14c-.86-10-7-13.76-12-16.78-4.39-2.67-8.19-5-9.66-11.4l-.71-3.11Z"/><path class="cls-2" d="M69.32,370.53a5,5,0,0,1-4.09-2.08c-4.17-5.63-11.29-8.08-18.17-10.45l-2.57-.9c-9.68-3.43-17-7.58-22.9-13.05A61.85,61.85,0,0,1,2,300.09c-.39-16.5,5.64-32.95,17.93-48.87,2.6-3.37,5.37-6.68,8.05-9.89s5.69-6.81,8.37-10.32a108.4,108.4,0,0,0,13.09-21.92A105.19,105.19,0,0,0,58,158.72a4.6,4.6,0,0,1,1.15-3.51,4.88,4.88,0,0,1,3.58-1.48,5,5,0,0,1,5.18,4.69,115.22,115.22,0,0,1-10.53,57.14c-5.59,12-13.79,22.05-21.72,31.8-2.66,3.27-5.42,6.66-8,10.08-11.79,15.35-17,31.14-15.42,46.93C13.71,319.58,22.44,334,35,341.93c4.46,2.83,9.68,4.71,14.73,6.53,8.71,3.15,17.73,6.4,23.81,14.62a4.33,4.33,0,0,1,.5,4.66,5.35,5.35,0,0,1-4.73,2.79Z"/><path d="M62.74,155.73a3.06,3.06,0,0,1,3.18,2.84,113.06,113.06,0,0,1-10.35,56.15c-7.33,15.73-19.09,27.9-29.54,41.51-10.8,14.06-17.59,30.32-15.82,48.34,1.55,15.68,10.36,30.58,23.73,39.05,12.31,7.8,28.8,8.22,38,20.65,1.59,2.16-.48,4.26-2.63,4.26a3,3,0,0,1-2.49-1.27c-5.09-6.88-14-9.32-21.68-12-8.21-2.92-15.75-6.69-22.21-12.64A59.86,59.86,0,0,1,4,300.05c-.42-17.84,6.81-33.73,17.51-47.6,5.31-6.88,11.15-13.33,16.43-20.23A109.86,109.86,0,0,0,51.29,209.9,107.14,107.14,0,0,0,60,158.57a2.55,2.55,0,0,1,2.74-2.84m0-4a6.86,6.86,0,0,0-5,2.12,6.57,6.57,0,0,0-1.69,5,103.07,103.07,0,0,1-8.38,49.41,106.49,106.49,0,0,1-12.85,21.51c-2.65,3.48-5.53,6.92-8.32,10.26S21,246.6,18.37,250C5.79,266.29-.38,283.16,0,300.14a63.91,63.91,0,0,0,20.21,45.38c6.15,5.66,13.65,9.94,23.59,13.47l2.59.9c6.59,2.27,13.41,4.62,17.21,9.75a7,7,0,0,0,5.7,2.89,7.29,7.29,0,0,0,6.52-3.89,6.37,6.37,0,0,0-.68-6.75c-6.45-8.71-15.75-12.06-24.74-15.31-5.18-1.87-10.06-3.63-14.34-6.34C24,332.6,15.64,318.78,14.2,304.18c-1.51-15.27,3.54-30.58,15-45.52,2.6-3.4,5.35-6.77,8-10,8-9.84,16.29-20,22-32.21a117.14,117.14,0,0,0,10.71-58.14,7.08,7.08,0,0,0-7.17-6.54Z"/><path class="cls-2" d="M203.28,370.53a5.35,5.35,0,0,1-4.73-2.79,4.35,4.35,0,0,1,.5-4.66c6.09-8.22,15.1-11.47,23.82-14.62,5-1.82,10.26-3.7,14.73-6.53,12.56-8,21.3-22.35,22.8-37.56,1.56-15.79-3.63-31.57-15.41-46.93-2.63-3.42-5.39-6.81-8.06-10.09-7.93-9.74-16.13-19.81-21.71-31.79a115.11,115.11,0,0,1-10.53-57.14,5,5,0,0,1,5.18-4.69,4.86,4.86,0,0,1,3.57,1.48,4.57,4.57,0,0,1,1.16,3.51,105.18,105.18,0,0,0,8.54,50.37A109,109,0,0,0,236.23,231c2.69,3.51,5.58,7,8.38,10.32s5.44,6.52,8,9.89c12.28,15.92,18.32,32.36,17.93,48.87a61.89,61.89,0,0,1-19.57,44c-6,5.47-13.22,9.62-22.9,13.05l-2.58.9c-6.88,2.37-14,4.82-18.16,10.45A5.06,5.06,0,0,1,203.28,370.53Z"/><path d="M209.87,155.73a2.54,2.54,0,0,1,2.73,2.84,107.26,107.26,0,0,0,8.71,51.33,110.77,110.77,0,0,0,13.33,22.32c5.28,6.9,11.13,13.35,16.43,20.23,10.71,13.87,17.94,29.76,17.52,47.6a59.9,59.9,0,0,1-18.92,42.53c-6.47,5.95-14,9.72-22.22,12.64-7.69,2.72-16.58,5.16-21.68,12a3,3,0,0,1-2.49,1.27c-2.15,0-4.22-2.1-2.62-4.26,9.21-12.43,25.69-12.85,38-20.65,13.36-8.47,22.17-23.37,23.72-39.05,1.78-18-5-34.28-15.82-48.34-10.45-13.61-22.2-25.78-29.54-41.51a113.17,113.17,0,0,1-10.35-56.15,3.07,3.07,0,0,1,3.19-2.84m0-4h0a7.09,7.09,0,0,0-7.18,6.54,117.14,117.14,0,0,0,10.72,58.14c5.69,12.2,14,22.37,22,32.21,2.66,3.27,5.41,6.64,8,10,11.47,14.94,16.52,30.25,15,45.52-1.44,14.6-9.83,28.42-21.88,36.06-4.28,2.71-9.17,4.47-14.34,6.34-9,3.25-18.3,6.6-24.74,15.31a6.35,6.35,0,0,0-.68,6.75,7.28,7.28,0,0,0,6.51,3.89,7,7,0,0,0,5.71-2.89c3.8-5.13,10.61-7.48,17.2-9.75l2.6-.9c9.94-3.53,17.43-7.81,23.58-13.47a63.88,63.88,0,0,0,20.22-45.38c.4-17-5.78-33.85-18.35-50.14-2.63-3.4-5.41-6.73-8.1-9.95s-5.66-6.78-8.32-10.26A106.49,106.49,0,0,1,225,208.28a103.31,103.31,0,0,1-8.38-49.41,6.52,6.52,0,0,0-1.68-5,6.86,6.86,0,0,0-5-2.12Z"/><path class="cls-1" d="M136.89,289v.05h-1.6Z"/><path class="cls-2" d="M136.13,287.06l-1.54,0c-23.85-.66-42.85-8.11-53.52-21-7.6-9.18-10.55-20.77-8.5-33.49,2.52-15.68,11.22-26.61,19.64-37.17,9.09-11.42,17.68-22.2,17.68-37.74V66.71h52.83v90.94c0,15.54,8.59,26.32,17.68,37.74,8.42,10.56,17.12,21.49,19.64,37.17,2,12.72-.9,24.31-8.51,33.49-10.66,12.86-29.66,20.31-53.51,21l-1.57,0Z"/><path d="M160.72,68.71v88.94c0,16.24,9.21,27.8,18.12,39,8.25,10.37,16.79,21.09,19.22,36.24,1.95,12.15-.84,23.18-8.07,31.9-10.29,12.42-28.76,19.61-52,20.25l-1.52,0h-.25l-1.54,0c-23.26-.64-41.74-7.83-52-20.25-7.23-8.72-10-19.75-8.07-31.9,2.44-15.15,11-25.87,19.23-36.24,8.91-11.18,18.12-22.74,18.12-39V68.71h48.83m4-4H107.89v92.94c0,29-32,41.44-37.3,74.59-5.18,32.28,20.5,55.58,63.94,56.78l1.6,0h.34l1.61,0c43.44-1.2,69.12-24.5,63.93-56.78-5.33-33.15-37.29-45.58-37.29-74.59V64.71Z"/><path class="cls-1" d="M135,289.06h-1.61V289Z"/><path class="cls-2" d="M136.3,164.39c-91.43,0-122-24.87-123.23-25.93a2,2,0,0,1,1-3.5c3.67-.61,17.81-6.75,32.79-13.24,23.89-10.36,51-22.11,59-22.11,3.85,0,4,2.63,4,3.15,0,3.53,6,5.77,9.64,6.79a68.8,68.8,0,0,0,16.77,2.29,69.86,69.86,0,0,0,16.56-2.29c6.26-1.75,9.86-4.23,9.86-6.79,0-.52.19-3.15,4.05-3.15,8,0,35.12,11.74,59,22.1,15,6.5,29.13,12.64,32.8,13.25a2,2,0,0,1,1.6,1.44,2,2,0,0,1-.64,2.06C258.28,139.52,227.74,164.39,136.3,164.39Z"/><path d="M166.77,101.61c12.83,0,81.82,33.71,91.48,35.32,0,0-30.19,25.46-121.95,25.46S14.36,136.93,14.36,136.93C24,135.32,93,101.61,105.84,101.61c1.32,0,2,.36,2,1.15,0,8.45,20.13,11.08,28.41,11.08,7.7,0,28.42-2.63,28.42-11.08,0-.79.72-1.15,2.05-1.15m0-4h0c-4.78,0-6.05,3.24-6.05,5.15,0,.87-1.76,3-8.4,4.86a67.06,67.06,0,0,1-16,2.22,66,66,0,0,1-16.22-2.22c-5.63-1.59-8.19-3.63-8.19-4.86,0-1.91-1.28-5.15-6-5.15-7.86,0-29.75,9.23-59.82,22.27C31.82,126,17.13,132.41,13.7,133a4,4,0,0,0-1.92,7c1.28,1.08,32.36,26.4,124.52,26.4S259.55,141.07,260.83,140a4,4,0,0,0-1.92-7c-3.43-.58-18.12-7-32.33-13.11-30.06-13-52-22.27-59.81-22.27Z"/><ellipse class="cls-2" cx="136.3" cy="59.09" rx="35.78" ry="12.77"/><path d="M136.3,48.31c18.66,0,33.78,4.83,33.78,10.78S155,69.86,136.3,69.86,102.53,65,102.53,59.09s15.12-10.78,33.77-10.78m0-4c-9.42,0-18.33,1.19-25.1,3.35C100.73,51,98.53,55.72,98.53,59.09s2.2,8.08,12.67,11.43c6.77,2.15,15.68,3.34,25.1,3.34s18.34-1.19,25.1-3.34c10.48-3.35,12.68-8.06,12.68-11.43S171.88,51,161.4,47.66c-6.76-2.16-15.67-3.35-25.1-3.35Z"/><path class="cls-2" d="M136.71,64.07c-16.82,0-24.94-3.59-25.35-5,.4-1.36,8.53-4.95,25.35-4.95s24.94,3.59,25.34,5C161.65,60.48,153.52,64.07,136.71,64.07Z"/><path d="M136.71,56.1c10.77,0,18.27,1.62,21.71,3-3.44,1.37-10.94,3-21.71,3s-18.28-1.61-21.72-3c3.44-1.37,11-3,21.72-3m0-4c-15.1,0-27.34,3.13-27.34,7s12.24,7,27.34,7,27.33-3.13,27.33-7-12.24-7-27.33-7Z"/><path class="cls-2" d="M136.3,317c-11.61,0-24.11-2.8-24.11-9s12.5-9,24.11-9,24.12,2.81,24.12,9S147.92,317,136.3,317Z"/><path d="M136.3,301.12c12.22,0,22.12,3.12,22.12,7s-9.9,7-22.12,7-22.11-3.12-22.11-7,9.9-7,22.11-7m0-4a58,58,0,0,0-16.83,2.23c-7.67,2.41-9.28,6.08-9.28,8.73s1.61,6.32,9.28,8.74A58.38,58.38,0,0,0,136.3,319a58.4,58.4,0,0,0,16.84-2.22c7.67-2.42,9.28-6.09,9.28-8.74s-1.61-6.32-9.28-8.73a58,58,0,0,0-16.84-2.23Z"/><path class="cls-2" d="M186.8,111.07a5,5,0,0,1-4.81-3.28c-3.24-8.39-2.35-17.43-.9-25.94q.28-1.68.6-3.39c1.27-7,2.58-14.24.76-20.95-1.74-6.44-6.69-11.19-15.13-14.52-6.73-2.66-13.53-6-16.35-14.66-.42-1.26-.74-2.55-1.05-3.79-.71-2.86-1.38-5.56-3.08-7.72a13.07,13.07,0,0,0-9.54-4.9l-.59-.06-.6.06a13.07,13.07,0,0,0-9.53,4.9c-1.71,2.16-2.38,4.87-3.1,7.74-.3,1.24-.62,2.51-1,3.77-2.83,8.68-9.63,12-16.35,14.66C97.66,46.32,92.71,51.07,91,57.51c-1.81,6.71-.5,13.95.77,20.95q.31,1.71.6,3.39c1.45,8.51,2.34,17.55-.9,25.94a5.06,5.06,0,0,1-4.82,3.28A5.14,5.14,0,0,1,82.38,109a4.4,4.4,0,0,1-.4-4.18c3-7.73,1.57-15.72.07-24.17-.38-2.16-.78-4.4-1.09-6.6-1.1-7.84-1.69-17.94,3.58-26.5,4.88-7.92,12.73-11.6,19.71-14.42,3.42-1.38,6.62-2.88,8.09-6a30.85,30.85,0,0,0,1.8-5.72,34.53,34.53,0,0,1,2-6.24A23,23,0,0,1,135.91,2h.28a4.52,4.52,0,0,0,1,0h.27a23,23,0,0,1,19.83,13.13,34.85,34.85,0,0,1,1.94,6.22,30.23,30.23,0,0,0,1.81,5.73c1.47,3.12,4.66,4.62,8.09,6,7,2.82,14.83,6.5,19.7,14.42,5.27,8.55,4.68,18.66,3.58,26.5-.31,2.2-.71,4.44-1.09,6.6-1.5,8.45-2.92,16.43.07,24.17A4.4,4.4,0,0,1,191,109,5.14,5.14,0,0,1,186.8,111.07Z"/><path d="M137.23,4h.17a21,21,0,0,1,18.11,12c1.73,3.84,2,8.18,3.76,12s5.46,5.52,9.15,7c7.48,3,14.37,6.48,18.75,13.61,4.65,7.55,4.49,16.7,3.3,25.17-1.48,10.54-4.92,21.38-.91,31.77.83,2.15-.93,3.57-2.76,3.57a3.05,3.05,0,0,1-2.94-2c-3.1-8-2.21-16.6-.8-24.88s3.56-16.93,1.32-25.2-8.81-12.89-16.33-15.86c-7-2.75-12.73-5.89-15.18-13.42-1.35-4.12-1.68-8.62-4.46-12.13a15.1,15.1,0,0,0-11-5.66,3.7,3.7,0,0,1-.69-.1,3.81,3.81,0,0,1-.7.1,15.07,15.07,0,0,0-11,5.66c-2.78,3.51-3.12,8-4.46,12.13-2.46,7.53-8.22,10.67-15.18,13.42C97.84,44.1,91.25,48.8,89,57S89,74,90.36,82.19s2.3,16.87-.8,24.88a3.06,3.06,0,0,1-3,2c-1.83,0-3.59-1.42-2.76-3.57,4-10.39.57-21.23-.91-31.77-1.19-8.47-1.34-17.62,3.31-25.17C90.63,41.43,97.52,38,105,35c3.69-1.49,7.37-3.24,9.15-7s2-8.14,3.76-12A21,21,0,0,1,136,4h.18a2.19,2.19,0,0,1,.52,0,2.14,2.14,0,0,1,.52,0m0-4-.52,0-.52,0h-.37a25.08,25.08,0,0,0-21.56,14.3,37.44,37.44,0,0,0-2.07,6.58,28.38,28.38,0,0,1-1.66,5.34c-1,2.24-3.38,3.53-7,5C96.23,34.18,88,38,82.84,46.46c-5.6,9.11-5,19.66-3.86,27.83.32,2.24.72,4.49,1.1,6.68,1.46,8.16,2.83,15.88,0,23.09a6.4,6.4,0,0,0,.61,6,7.23,7.23,0,0,0,12.56-1.57c3.42-8.86,2.51-18.21,1-27-.19-1.13-.4-2.27-.6-3.42-1.23-6.78-2.5-13.79-.81-20.07,1.57-5.79,6.13-10.1,13.94-13.18,6.86-2.7,14.42-6.39,17.52-15.9.44-1.33.76-2.64,1.08-3.91.68-2.77,1.28-5.16,2.72-7a11,11,0,0,1,8.07-4.14l.49,0,.5,0a11,11,0,0,1,8.06,4.15c1.43,1.81,2,4.19,2.71,7,.32,1.28.65,2.6,1.08,3.93,3.1,9.51,10.67,13.19,17.52,15.9C174.39,47.93,179,52.24,180.52,58c1.7,6.28.43,13.29-.8,20.07-.21,1.15-.41,2.29-.61,3.42-1.49,8.79-2.4,18.14,1,27a7.22,7.22,0,0,0,12.55,1.58,6.42,6.42,0,0,0,.61-6c-2.78-7.22-1.41-14.93,0-23.1.39-2.18.79-4.43,1.1-6.67,1.15-8.18,1.75-18.73-3.85-27.83-5.19-8.44-13.39-12.28-20.66-15.22-3.66-1.48-6-2.77-7-5a28.49,28.49,0,0,1-1.66-5.35,37,37,0,0,0-2.07-6.56A25,25,0,0,0,137.61,0Z"/><ellipse class="cls-3" cx="111.23" cy="331.74" rx="7.1" ry="9.89"/><path class="cls-3" d="M85.69,328h22.7a3.35,3.35,0,0,1,3.35,3.35v.71a3.35,3.35,0,0,1-3.35,3.35H85.69a0,0,0,0,1,0,0V328a0,0,0,0,1,0,0Z"/><path class="cls-3" d="M100.68,331.73c0,8.68-3.91,15.72-8.73,15.72h-5.6V316H92C96.77,316,100.68,323.06,100.68,331.73Z"/><ellipse class="cls-3" cx="84.51" cy="331.74" rx="8.73" ry="15.71"/><path class="cls-4" d="M172,282.25c-.51,1.53-1.9,2.58-2.77,3.94a12,12,0,0,0-1.76,4.5c-1.69,7.19-6.33,10.89-12.79,13.91l.16-.09a48.86,48.86,0,0,1-18.77,3.36c-7.34,0-14-1.28-18.81-3.37l.16.1c-6.45-3-11.09-6.72-12.78-13.91a12,12,0,0,0-1.77-4.5c-.86-1.36-2.25-2.41-2.77-3.94a4.58,4.58,0,0,1,1.64-4.9,6.3,6.3,0,0,1,5.25-1,10,10,0,0,1,4.67,2.81,14.77,14.77,0,0,1,4.19,8.85V287a6.73,6.73,0,1,1,13.46,0v3.56a6.73,6.73,0,1,1,13.46,0V287a6.73,6.73,0,1,1,13.46,0v1.31a14.8,14.8,0,0,1,4.22-9.11,10,10,0,0,1,4.66-2.81,6.28,6.28,0,0,1,5.25,1A4.56,4.56,0,0,1,172,282.25Z"/><line class="cls-4" x1="129.34" y1="289.96" x2="129.34" y2="293.69"/><line class="cls-4" x1="142.78" y1="289.96" x2="142.84" y2="293.69"/><line class="cls-4" x1="156.28" y1="286.71" x2="156.34" y2="290.43"/><line class="cls-4" x1="115.84" y1="286.71" x2="115.9" y2="290.43"/></g></g></svg>