<svg xmlns="http://www.w3.org/2000/svg" viewBox="0 0 233.28 266.65"><defs><style>.cls-1{fill:#fff;}.cls-1,.cls-2{stroke:#000;stroke-linecap:round;stroke-linejoin:round;stroke-width:4px;}</style></defs><title>Asset 2</title><g id="Layer_2" data-name="Layer 2"><g id="Mailbox"><rect class="cls-1" x="117.75" y="141.87" width="49.17" height="122.78"/><rect class="cls-1" x="117.75" y="141.87" width="24.59" height="122.78"/><path class="cls-1" d="M231.28,87.61v59.24H87.18V48.2H191.87a39.4,39.4,0,0,1,39.41,39.41Z"/><path class="cls-2" d="M89.67,48.2h0a39.41,39.41,0,0,1,39.41,39.41v59.24a0,0,0,0,1,0,0H50.26a0,0,0,0,1,0,0V87.61A39.41,39.41,0,0,1,89.67,48.2Z"/><path class="cls-1" d="M89.67,146.85h0a39.41,39.41,0,0,1,39.41,39.41V245.5a0,0,0,0,1,0,0H50.26a0,0,0,0,1,0,0V186.26a39.41,39.41,0,0,1,39.41-39.41Z" transform="translate(179.34 392.36) rotate(180)"/><path class="cls-1" d="M214.54,7.91V20.42H177.59l-1.29,97.66H165.55a15.36,15.36,0,0,1-5.47-29.72V7.91A5.9,5.9,0,0,1,166,2h42.65A5.9,5.9,0,0,1,214.54,7.91Z"/><line class="cls-1" x1="172.12" y1="88.36" x2="160.08" y2="88.36"/><path class="cls-1" d="M223.59,7.9v15a5.91,5.91,0,0,1-5.91,5.91H180.07V88.36a15.37,15.37,0,1,1-10.95,0V7.9A5.91,5.91,0,0,1,175,2h42.65A5.91,5.91,0,0,1,223.59,7.9Z"/><circle cx="174.6" cy="102.72" r="7.4"/><circle class="cls-1" cx="73.29" cy="100.57" r="21.38"/><circle class="cls-1" cx="107.04" cy="100.57" r="21.38"/><circle cx="63.55" cy="100.57" r="6.09"/><circle cx="99.02" cy="100.57" r="6.09"/><path class="cls-1" d="M24.11,111.66a21.61,21.61,0,0,0-14.64.47A14.52,14.52,0,0,0,4.74,115a8.58,8.58,0,0,0-2.67,4.75,4.27,4.27,0,0,0,1.11,3.89,5,5,0,0,0,1.44.8,6.2,6.2,0,0,0,3.5.36c2.2-.52,3.61-2.58,4.92-4.41,2.68-3.73,6.07-7.28,10.49-8.53"/><path class="cls-1" d="M32.45,128.4a23.36,23.36,0,0,0-11.62,7.83,12.51,12.51,0,0,0-2.55,4.88,6.53,6.53,0,0,0,.94,5.31,4.46,4.46,0,0,0,4.91,1.65,5.14,5.14,0,0,0,2-1.39,8.71,8.71,0,0,0,1.52-2.18c1.32-2.7,1.19-5.85,1.78-8.8a18.11,18.11,0,0,1,3.2-7.21"/><path class="cls-1" d="M37.05,94.57a20.92,20.92,0,0,0-10.28-12,10.37,10.37,0,0,0-7.13-1.21c-2.38.63-4.43,3-4.06,5.39.3,2,2.1,3.52,4,4.19a25.43,25.43,0,0,0,6,.84,33.8,33.8,0,0,1,11.5,3.09"/></g></g></svg>