<svg xmlns="http://www.w3.org/2000/svg" viewBox="0 0 172.9 172.9"><defs><style>.cls-1{fill:#fff;}</style></defs><title>Asset 4</title><g id="Layer_2" data-name="Layer 2"><g id="HJ_Logo" data-name="HJ Logo"><path d="M141.78,97.42l0,.09a5.28,5.28,0,0,0,3.14,5.91l3.22,1.33A6.69,6.69,0,1,1,143,117.12l-3.18-1.32a5.28,5.28,0,0,0-6.42,2l-.05.08a5.27,5.27,0,0,0,.64,6.67l2.44,2.44a6.7,6.7,0,0,1-9.47,9.47L124.54,134a5.28,5.28,0,0,0-6.69-.63l-.07.05a5.29,5.29,0,0,0-2,6.42l1.31,3.16a6.69,6.69,0,0,1-12.37,5.12l-1.3-3.14a5.28,5.28,0,0,0-5.94-3.14h-.08A5.29,5.29,0,0,0,93.14,147v3.26a6.78,6.78,0,0,1-6.55,6.83,6.69,6.69,0,0,1-6.84-6.69V147a5.29,5.29,0,0,0-4.28-5.18h-.09A5.28,5.28,0,0,0,69.44,145l-1.3,3.14a6.69,6.69,0,0,1-12.87-2.57,6.56,6.56,0,0,1,.51-2.55l1.31-3.16a5.3,5.3,0,0,0-2-6.42l-.07-.05a5.3,5.3,0,0,0-6.7.63l-2.42,2.42A6.69,6.69,0,0,1,36.47,127l2.44-2.44a5.27,5.27,0,0,0,.63-6.67l0-.08a5.27,5.27,0,0,0-6.41-2l-3.19,1.32a6.69,6.69,0,0,1-5.12-12.37L28,103.42a5.28,5.28,0,0,0,3.13-5.91l0-.09A5.26,5.26,0,0,0,26,93.14H22.59a6.77,6.77,0,0,1-6.82-6.55,6.69,6.69,0,0,1,6.69-6.83H26a5.26,5.26,0,0,0,5.15-4.26l0-.08A5.28,5.28,0,0,0,28,69.5l-3.27-1.35a6.69,6.69,0,1,1,5.12-12.37l3.32,1.37a5.24,5.24,0,0,0,6.37-1.95l.05-.07A5.27,5.27,0,0,0,39,48.47l-2.54-2.53a6.69,6.69,0,1,1,9.46-9.47L48.49,39a5.24,5.24,0,0,0,6.64.63l.07,0a5.24,5.24,0,0,0,2-6.37L55.78,29.9a6.7,6.7,0,0,1,3.62-8.75A6.79,6.79,0,0,1,62,20.64a6.69,6.69,0,0,1,6.18,4.14l1.39,3.35a5.25,5.25,0,0,0,5.89,3.12l.08,0a5.23,5.23,0,0,0,4.25-5.13V22.6a6.79,6.79,0,0,1,6.55-6.83,6.69,6.69,0,0,1,6.84,6.7V26.1a5.24,5.24,0,0,0,4.25,5.13l.09,0a5.23,5.23,0,0,0,5.88-3.12l1.39-3.35a6.69,6.69,0,0,1,12.88,2.56,6.83,6.83,0,0,1-.51,2.56l-1.39,3.34a5.24,5.24,0,0,0,2,6.37l.08,0A5.23,5.23,0,0,0,124.4,39L127,36.47a6.7,6.7,0,0,1,9.47,9.47l-2.55,2.54a5.25,5.25,0,0,0-.62,6.64l.06.09a5.24,5.24,0,0,0,6.36,1.95L143,55.78a6.71,6.71,0,0,1,8.75,3.62,6.83,6.83,0,0,1,.51,2.56,6.7,6.7,0,0,1-4.14,6.19l-3.28,1.36a5.25,5.25,0,0,0-3.12,5.89l0,.12a5.24,5.24,0,0,0,5.13,4.24h3.42a6.78,6.78,0,0,1,6.82,6.55,6.68,6.68,0,0,1-6.69,6.83h-3.49A5.27,5.27,0,0,0,141.78,97.42Z"/><circle cx="100.61" cy="157.64" r="5.17"/><circle cx="72.29" cy="157.64" r="5.17"/><circle cx="126.78" cy="26.09" r="5.17"/><circle cx="146.8" cy="46.12" r="5.17"/><circle cx="46.13" cy="146.8" r="5.17"/><circle cx="26.1" cy="126.78" r="5.17"/><circle cx="146.81" cy="126.77" r="5.17"/><circle cx="126.78" cy="146.8" r="5.17"/><circle cx="26.1" cy="46.12" r="5.17"/><circle cx="46.12" cy="26.1" r="5.17"/><circle cx="72.29" cy="15.26" r="5.17"/><circle cx="100.61" cy="15.26" r="5.17"/><circle cx="157.64" cy="72.29" r="5.17"/><circle cx="157.64" cy="100.61" r="5.17"/><circle cx="15.26" cy="100.61" r="5.17"/><circle cx="15.26" cy="72.29" r="5.17"/><circle cx="86.45" cy="6" r="3.69"/><circle cx="86.45" cy="166.9" r="3.69"/><circle cx="166.9" cy="86.45" r="3.69"/><circle cx="6" cy="86.45" r="3.69"/><circle cx="143.34" cy="29.56" r="3.69"/><circle cx="29.56" cy="143.34" r="3.69"/><circle cx="143.34" cy="143.34" r="3.69"/><circle cx="29.56" cy="29.56" r="3.69"/><circle cx="86.45" cy="6" r="3.69"/><circle cx="86.45" cy="166.9" r="3.69"/><circle cx="6" cy="86.45" r="3.69"/><circle cx="143.34" cy="29.56" r="3.69"/><circle cx="29.56" cy="143.34" r="3.69"/><circle cx="143.34" cy="143.34" r="3.69"/><circle cx="29.56" cy="29.56" r="3.69"/><circle cx="56.31" cy="11.85" r="3.69"/><circle cx="116.59" cy="161.05" r="3.69"/><circle cx="161.05" cy="56.31" r="3.69"/><circle cx="11.85" cy="116.59" r="3.69"/><circle cx="117.89" cy="12.39" r="3.69"/><circle cx="55.01" cy="160.51" r="3.69"/><circle cx="160.51" cy="117.89" r="3.69"/><circle cx="12.39" cy="55.01" r="3.69"/><circle cx="56.31" cy="11.85" r="3.69"/><circle cx="116.59" cy="161.05" r="3.69"/><circle cx="11.85" cy="116.59" r="3.69"/><circle cx="117.89" cy="12.39" r="3.69"/><circle cx="55.01" cy="160.51" r="3.69"/><circle cx="160.51" cy="117.89" r="3.69"/><circle cx="12.39" cy="55.01" r="3.69"/><circle cx="157.71" cy="133.81" r="2.58"/><circle cx="133.81" cy="15.19" r="2.58"/><circle cx="39.09" cy="157.71" r="2.58"/><circle cx="15.19" cy="39.09" r="2.58"/><circle cx="170.32" cy="69.55" r="2.58"/><circle cx="2.58" cy="103.35" r="2.58"/><circle cx="103.35" cy="170.32" r="2.58"/><circle cx="69.55" cy="2.58" r="2.58"/><circle cx="170.26" cy="103.66" r="2.58"/><circle cx="103.66" cy="2.64" r="2.58"/><circle cx="69.24" cy="170.26" r="2.58"/><circle cx="2.64" cy="69.24" r="2.58"/><circle cx="157.88" cy="39.36" r="2.58"/><circle cx="15.02" cy="133.54" r="2.58"/><circle cx="133.54" cy="157.88" r="2.58"/><circle cx="39.36" cy="15.02" r="2.58"/><circle class="cls-1" cx="65.44" cy="86.45" r="18.54"/><circle class="cls-1" cx="107.46" cy="86.45" r="18.54"/><circle cx="65.36" cy="86.45" r="9.86"/><circle cx="107.46" cy="86.45" r="9.86"/></g></g></svg>