<?xml version="1.0" encoding="UTF-8"?>
<svg width="60px" height="60px" viewBox="0 0 60 60" version="1.1" xmlns="http://www.w3.org/2000/svg" xmlns:xlink="http://www.w3.org/1999/xlink">
    <!-- Generator: Sketch 52.6 (67491) - http://www.bohemiancoding.com/sketch -->
    <title>Group</title>
    <desc>Created with Sketch.</desc>
    <g id="Page-1" stroke="none" stroke-width="1" fill="none" fill-rule="evenodd">
        <g id="Group">
            <circle id="Oval" fill="#FFFFFF" cx="22.7090804" cy="30" r="6.43377675"></circle>
            <circle id="Oval" fill="#FFFFFF" cx="37.2909196" cy="30" r="6.43377675"></circle>
            <path d="M49.1722543,33.7872832 L49.1722543,33.8184971 C49.0006213,34.6739218 49.4563297,35.5316405 50.2612717,35.8682081 L51.3780347,36.3294798 C52.5627334,36.8217474 53.1240596,38.1811973 52.6317919,39.365896 C52.1395242,40.5505946 50.7800744,41.1119209 49.5953757,40.6196532 L48.4924855,40.1618497 C47.6799711,39.8294685 46.7458836,40.1204615 46.265896,40.8554913 L46.2485549,40.883237 C45.7597024,41.6081663 45.8527394,42.5777862 46.4705202,43.1965318 L47.316763,44.0427746 C48.1730417,44.9579396 48.1492913,46.3872737 47.2630802,47.2734849 C46.3768691,48.159696 44.947535,48.1834464 44.0323699,47.3271676 L43.1930636,46.4739884 C42.5717773,45.8549088 41.5987693,45.7632802 40.8728324,46.2554913 L40.8485549,46.2728324 C40.1146861,46.7536967 39.8239856,47.6868453 40.1549133,48.499422 L40.6092486,49.5953757 C41.0996008,50.7800744 40.5367218,52.1379714 39.3520231,52.6283236 C38.1673244,53.1186759 36.8094274,52.5557969 36.3190751,51.3710983 L35.8682081,50.2820809 C35.5308481,49.4726194 34.6669715,49.0159574 33.8080925,49.1930636 L33.7803468,49.1930636 C32.9252204,49.362798 32.307632,50.1108628 32.3028902,50.982659 L32.3028902,52.1132948 C32.3130245,53.3881564 31.3053834,54.4388723 30.0312139,54.4820809 C29.4068867,54.4960828 28.8032733,54.2578259 28.3568282,53.8211713 C27.9103831,53.3845167 27.6588025,52.7863338 27.6589595,52.1618497 L27.6589595,50.982659 C27.6568568,50.1061068 27.0349968,49.353482 26.1745665,49.1861272 L26.1433526,49.1861272 C25.2808376,49.0109136 24.4156727,49.4740827 24.083237,50.2890173 L23.6323699,51.3780347 C23.2083179,52.4009403 22.1205416,52.981642 21.0346609,52.7648033 C19.9487801,52.5479647 19.1674554,51.5940237 19.1687861,50.4867052 C19.168138,50.1830578 19.228279,49.8823527 19.3456647,49.6023121 L19.8,48.5063584 C20.1294827,47.693721 19.8390723,46.7615038 19.1063584,46.2797688 L19.0820809,46.2624277 C18.354699,45.7710974 17.3814241,45.8626143 16.7583815,46.4809249 L15.9190751,47.3202312 C14.998413,48.1125121 13.6225296,48.0606596 12.7641112,47.2013309 C11.9056929,46.3420023 11.8552986,44.9660646 12.6485549,44.0462428 L13.4947977,43.2 C14.1114733,42.5803789 14.2030498,41.6108317 13.7132948,40.8867052 L13.7132948,40.8589595 C13.2345343,40.1244695 12.3016656,39.8334028 11.4901734,40.1653179 L10.383815,40.6231214 C9.19911637,41.1134736 7.84121937,40.5505946 7.35086715,39.3658959 C6.86051492,38.1811973 7.42339387,36.8233003 8.60809249,36.332948 L9.71098266,35.8682081 C10.5145579,35.5304225 10.9686479,34.6730194 10.7965318,33.8184971 L10.7965318,33.7872832 C10.6341796,32.9310163 9.88884079,32.3091742 9.01734104,32.3028902 L7.83468208,32.3028902 C6.56043155,32.3129732 5.510734,31.3048326 5.46936416,30.0312139 C5.45630858,29.4074811 5.69498508,28.8047701 6.13153592,28.3590837 C6.56808676,27.9133973 7.16572599,27.6622911 7.78959538,27.6624277 L9.01734104,27.6624277 C9.88930015,27.660095 10.637699,27.0410311 10.8034682,26.1849711 L10.8034682,26.1572254 C10.9764415,25.2997431 10.5187948,24.4396579 9.71098266,24.1040462 L8.57687861,23.6358382 C7.81051293,23.3186359 7.27158724,22.6166777 7.16310964,21.7943844 C7.05463203,20.9720911 7.39308284,20.1543887 8.05097092,19.6492977 C8.70885899,19.1442067 9.58623549,19.0284624 10.3526012,19.3456647 L11.5040462,19.8208092 C12.3074342,20.1527446 13.2333911,19.8692884 13.7132948,19.1445087 L13.7306358,19.1202312 C14.222093,18.4000382 14.1364231,17.4329846 13.5260116,16.8104046 L12.6450867,15.932948 C11.7381266,15.0269456 11.7373502,13.5572491 12.6433526,12.650289 C13.549355,11.7433289 15.0190515,11.7425525 15.9260116,12.6485549 L16.817341,13.5260116 C17.4335379,14.1410552 18.3993607,14.232692 19.1202312,13.7445087 L19.1445087,13.7445087 C19.875676,13.2697775 20.1667439,12.3427263 19.8381503,11.5352601 L19.3456647,10.3699422 C18.855229,9.18524329 19.4170759,7.82718788 20.6011561,7.33526012 C20.8872028,7.21765888 21.1936134,7.15755527 21.5028902,7.1583815 C22.442098,7.15907646 23.2882489,7.72591544 23.6462428,8.59421965 L24.1283237,9.75606936 C24.4636045,10.5581844 25.3191641,11.011384 26.1710983,10.8381503 L26.1988439,10.8381503 C27.0531908,10.6751765 27.6716077,9.9287109 27.6728324,9.05895954 L27.6728324,7.83815029 C27.664531,6.56401786 28.6711444,5.51437368 29.9445087,5.46936416 C30.5694379,5.45534782 31.1735867,5.69407624 31.6201359,6.13148548 C32.066685,6.56889473 32.3178545,7.16797816 32.316763,7.79306358 L32.316763,9.05202312 C32.3193565,9.92127944 32.9371456,10.6669873 33.7907514,10.8312139 L33.8219653,10.8312139 C34.6731621,11.005492 35.5283975,10.5516936 35.8612717,9.74913295 L36.3433526,8.58728324 C36.7643825,7.56026318 37.8538268,6.97528545 38.9425026,7.19166821 C40.0311783,7.40805097 40.8141171,8.36517937 40.8104046,9.47514451 C40.8090735,9.77971746 40.7490174,10.0811757 40.633526,10.3630058 L40.1514451,11.5213873 C39.8228515,12.3288535 40.1139193,13.2559046 40.8450867,13.7306358 L40.8728324,13.7306358 C41.5835799,14.2066088 42.5302596,14.1213354 43.1445087,13.5260116 L44.0462428,12.6485549 C44.9614078,11.7922762 46.390742,11.8160266 47.2769531,12.7022377 C48.1631642,13.5884488 48.1869146,15.017783 47.3306358,15.932948 L46.4462428,16.8138728 C45.833618,17.4315611 45.7435337,18.3963354 46.2312139,19.116763 L46.2520231,19.1479769 C46.7315713,19.8710548 47.6553721,20.1542956 48.4578035,19.8242775 L49.5953757,19.3456647 C50.7800741,18.857292 52.1366729,19.4185363 52.6300578,20.6011561 C52.7455491,20.8829862 52.8056053,21.1844444 52.8069364,21.4890173 C52.8067063,22.4292027 52.2399474,23.2766032 51.3710983,23.6358382 L50.233526,24.1075145 C49.431411,24.4427953 48.9782114,25.2983549 49.1514451,26.150289 L49.1514451,26.1919075 C49.3171259,27.044135 50.0624557,27.6601581 50.9306358,27.6624277 L52.116763,27.6624277 C53.3902818,27.6541821 54.4389047,28.6612907 54.4820809,29.934104 C54.4960976,30.5581134 54.2577347,31.1613802 53.8209759,31.607279 C53.384217,32.0531779 52.7860155,32.303982 52.1618497,32.3028902 L50.9514451,32.3028902 C50.0804423,32.3105287 49.3358501,32.9317479 49.1722543,33.7872832 Z M34.8936416,56.465896 C33.9033599,56.465896 33.100578,55.663114 33.100578,54.6728324 C33.100578,53.6825507 33.9033599,52.8797688 34.8936416,52.8797688 C35.8839233,52.8797688 36.6867052,53.6825507 36.6867052,54.6728324 C36.6867052,55.663114 35.8839233,56.465896 34.8936416,56.465896 Z M25.0716763,56.465896 C24.0813946,56.465896 23.2786127,55.663114 23.2786127,54.6728324 C23.2786127,53.6825507 24.0813946,52.8797688 25.0716763,52.8797688 C26.061958,52.8797688 26.8647399,53.6825507 26.8647399,54.6728324 C26.8647399,55.663114 26.061958,56.465896 25.0716763,56.465896 Z M43.9699422,10.8416185 C42.9796605,10.8416185 42.1768786,10.0388366 42.1768786,9.04855491 C42.1768786,8.05827324 42.9796605,7.25549133 43.9699422,7.25549133 C44.9602239,7.25549133 45.7630058,8.05827324 45.7630058,9.04855491 C45.7630058,10.0388366 44.9602239,10.8416185 43.9699422,10.8416185 Z M50.9132948,17.7884393 C49.9230131,17.7884393 49.1202312,16.9856574 49.1202312,15.9953757 C49.1202312,15.005094 49.9230131,14.2023121 50.9132948,14.2023121 C51.9035765,14.2023121 52.7063584,15.005094 52.7063584,15.9953757 C52.7063584,16.9856574 51.9035765,17.7884393 50.9132948,17.7884393 Z M15.9988439,52.7063584 C15.0085623,52.7063584 14.2057803,51.9035765 14.2057803,50.9132948 C14.2057803,49.9230131 15.0085623,49.1202312 15.9988439,49.1202312 C16.9891256,49.1202312 17.7919075,49.9230131 17.7919075,50.9132948 C17.7919075,51.9035765 16.9891256,52.7063584 15.9988439,52.7063584 Z M9.05202312,45.7630058 C8.06174145,45.7630058 7.25895954,44.9602239 7.25895954,43.9699422 C7.25895954,42.9796605 8.06174145,42.1768786 9.05202312,42.1768786 C10.0423048,42.1768786 10.8450867,42.9796605 10.8450867,43.9699422 C10.8450867,44.9602239 10.0423048,45.7630058 9.05202312,45.7630058 Z M50.916763,45.7595376 C49.9264813,45.7595376 49.1236994,44.9567557 49.1236994,43.966474 C49.1236994,42.9761923 49.9264813,42.1734104 50.916763,42.1734104 C51.9070447,42.1734104 52.7098266,42.9761923 52.7098266,43.966474 C52.7098266,44.9567557 51.9070447,45.7595376 50.916763,45.7595376 Z M43.9699422,52.7063584 C42.9796605,52.7063584 42.1768786,51.9035765 42.1768786,50.9132948 C42.1768786,49.9230131 42.9796605,49.1202312 43.9699422,49.1202312 C44.9602239,49.1202312 45.7630058,49.9230131 45.7630058,50.9132948 C45.7630058,51.9035765 44.9602239,52.7063584 43.9699422,52.7063584 Z M9.05202312,17.7884393 C8.06174145,17.7884393 7.25895954,16.9856574 7.25895954,15.9953757 C7.25895954,15.005094 8.06174145,14.2023121 9.05202312,14.2023121 C10.0423048,14.2023121 10.8450867,15.005094 10.8450867,15.9953757 C10.8450867,16.9856574 10.0423048,17.7884393 9.05202312,17.7884393 Z M15.9953757,10.8450867 C15.005094,10.8450867 14.2023121,10.0423048 14.2023121,9.05202312 C14.2023121,8.06174145 15.005094,7.25895954 15.9953757,7.25895954 C16.9856574,7.25895954 17.7884393,8.06174145 17.7884393,9.05202312 C17.7884393,10.0423048 16.9856574,10.8450867 15.9953757,10.8450867 Z M25.0716763,7.08554913 C24.0813946,7.08554913 23.2786127,6.28276722 23.2786127,5.29248555 C23.2786127,4.30220388 24.0813946,3.49942197 25.0716763,3.49942197 C26.061958,3.49942197 26.8647399,4.30220388 26.8647399,5.29248555 C26.8647399,6.28276722 26.061958,7.08554913 25.0716763,7.08554913 Z M34.8936416,7.08554913 C33.9033599,7.08554913 33.100578,6.28276722 33.100578,5.29248555 C33.100578,4.30220388 33.9033599,3.49942197 34.8936416,3.49942197 C35.8839233,3.49942197 36.6867052,4.30220388 36.6867052,5.29248555 C36.6867052,6.28276722 35.8839233,7.08554913 34.8936416,7.08554913 Z M54.6728324,26.8647399 C53.6825507,26.8647399 52.8797688,26.061958 52.8797688,25.0716763 C52.8797688,24.0813946 53.6825507,23.2786127 54.6728324,23.2786127 C55.663114,23.2786127 56.465896,24.0813946 56.465896,25.0716763 C56.465896,26.061958 55.663114,26.8647399 54.6728324,26.8647399 Z M54.6728324,36.6867052 C53.6825507,36.6867052 52.8797688,35.8839233 52.8797688,34.8936416 C52.8797688,33.9033599 53.6825507,33.100578 54.6728324,33.100578 C55.663114,33.100578 56.465896,33.9033599 56.465896,34.8936416 C56.465896,35.8839233 55.663114,36.6867052 54.6728324,36.6867052 Z M5.29248555,36.6867052 C4.30220388,36.6867052 3.49942197,35.8839233 3.49942197,34.8936416 C3.49942197,33.9033599 4.30220388,33.100578 5.29248555,33.100578 C6.28276722,33.100578 7.08554913,33.9033599 7.08554913,34.8936416 C7.08554913,35.8839233 6.28276722,36.6867052 5.29248555,36.6867052 Z M5.29248555,26.8647399 C4.30220388,26.8647399 3.49942197,26.061958 3.49942197,25.0716763 C3.49942197,24.0813946 4.30220388,23.2786127 5.29248555,23.2786127 C6.28276722,23.2786127 7.08554913,24.0813946 7.08554913,25.0716763 C7.08554913,26.061958 6.28276722,26.8647399 5.29248555,26.8647399 Z M29.982659,3.36069364 C29.2758622,3.36069364 28.7028902,2.78772164 28.7028902,2.08092486 C28.7028902,1.37412807 29.2758622,0.801156069 29.982659,0.801156069 C30.6894557,0.801156069 31.2624277,1.37412807 31.2624277,2.08092486 C31.2624277,2.78772164 30.6894557,3.36069364 29.982659,3.36069364 Z M29.982659,59.1641618 C29.2758622,59.1641618 28.7028902,58.5911898 28.7028902,57.8843931 C28.7028902,57.1775963 29.2758622,56.6046243 29.982659,56.6046243 C30.6894557,56.6046243 31.2624277,57.1775963 31.2624277,57.8843931 C31.2624277,58.5911898 30.6894557,59.1641618 29.982659,59.1641618 Z M57.8843931,31.2624277 C57.1775963,31.2624277 56.6046243,30.6894557 56.6046243,29.982659 C56.6046243,29.2758622 57.1775963,28.7028902 57.8843931,28.7028902 C58.5911898,28.7028902 59.1641618,29.2758622 59.1641618,29.982659 C59.1641618,30.6894557 58.5911898,31.2624277 57.8843931,31.2624277 Z M2.08092486,31.2624277 C1.37412807,31.2624277 0.801156069,30.6894557 0.801156069,29.982659 C0.801156069,29.2758622 1.37412807,28.7028902 2.08092486,28.7028902 C2.78772164,28.7028902 3.36069364,29.2758622 3.36069364,29.982659 C3.36069364,30.6894557 2.78772164,31.2624277 2.08092486,31.2624277 Z M49.7132948,11.5317919 C49.006498,11.5317919 48.433526,10.9588199 48.433526,10.2520231 C48.433526,9.54522634 49.006498,8.97225434 49.7132948,8.97225434 C50.4200916,8.97225434 50.9930636,9.54522634 50.9930636,10.2520231 C50.9930636,10.9588199 50.4200916,11.5317919 49.7132948,11.5317919 Z M10.2520231,50.9930636 C9.54522634,50.9930636 8.97225434,50.4200916 8.97225434,49.7132948 C8.97225434,49.006498 9.54522634,48.433526 10.2520231,48.433526 C10.9588199,48.433526 11.5317919,49.006498 11.5317919,49.7132948 C11.5317919,50.4200916 10.9588199,50.9930636 10.2520231,50.9930636 Z M49.7132948,50.9930636 C49.006498,50.9930636 48.433526,50.4200916 48.433526,49.7132948 C48.433526,49.006498 49.006498,48.433526 49.7132948,48.433526 C50.4200916,48.433526 50.9930636,49.006498 50.9930636,49.7132948 C50.9930636,50.4200916 50.4200916,50.9930636 49.7132948,50.9930636 Z M10.2520231,11.5317919 C9.54522634,11.5317919 8.97225434,10.9588199 8.97225434,10.2520231 C8.97225434,9.54522634 9.54522634,8.97225434 10.2520231,8.97225434 C10.9588199,8.97225434 11.5317919,9.54522634 11.5317919,10.2520231 C11.5317919,10.9588199 10.9588199,11.5317919 10.2520231,11.5317919 Z M19.5294798,5.38959538 C18.822683,5.38959538 18.249711,4.81662337 18.249711,4.10982659 C18.249711,3.40302981 18.822683,2.8300578 19.5294798,2.8300578 C20.2362766,2.8300578 20.8092486,3.40302981 20.8092486,4.10982659 C20.8092486,4.81662337 20.2362766,5.38959538 19.5294798,5.38959538 Z M40.4358382,57.1352601 C39.7290414,57.1352601 39.1560694,56.5622881 39.1560694,55.8554913 C39.1560694,55.1486945 39.7290414,54.5757225 40.4358382,54.5757225 C41.1426349,54.5757225 41.7156069,55.1486945 41.7156069,55.8554913 C41.7156069,56.5622881 41.1426349,57.1352601 40.4358382,57.1352601 Z M55.8554913,20.8092486 C55.1486945,20.8092486 54.5757225,20.2362766 54.5757225,19.5294798 C54.5757225,18.822683 55.1486945,18.249711 55.8554913,18.249711 C56.5622881,18.249711 57.1352601,18.822683 57.1352601,19.5294798 C57.1352601,20.2362766 56.5622881,20.8092486 55.8554913,20.8092486 Z M4.10982659,41.7156069 C3.40302981,41.7156069 2.8300578,41.1426349 2.8300578,40.4358382 C2.8300578,39.7290414 3.40302981,39.1560694 4.10982659,39.1560694 C4.81662337,39.1560694 5.38959538,39.7290414 5.38959538,40.4358382 C5.38959538,41.1426349 4.81662337,41.7156069 4.10982659,41.7156069 Z M40.8867052,5.57687861 C40.1799084,5.57687861 39.6069364,5.00390661 39.6069364,4.29710983 C39.6069364,3.59031304 40.1799084,3.01734104 40.8867052,3.01734104 C41.593502,3.01734104 42.166474,3.59031304 42.166474,4.29710983 C42.166474,5.00390661 41.593502,5.57687861 40.8867052,5.57687861 Z M19.0786127,56.9479769 C18.3718159,56.9479769 17.7988439,56.3750049 17.7988439,55.6682081 C17.7988439,54.9614113 18.3718159,54.3884393 19.0786127,54.3884393 C19.7854095,54.3884393 20.3583815,54.9614113 20.3583815,55.6682081 C20.3583815,56.3750049 19.7854095,56.9479769 19.0786127,56.9479769 Z M55.6682081,42.166474 C54.9614113,42.166474 54.3884393,41.593502 54.3884393,40.8867052 C54.3884393,40.1799084 54.9614113,39.6069364 55.6682081,39.6069364 C56.3750049,39.6069364 56.9479769,40.1799084 56.9479769,40.8867052 C56.9479769,41.593502 56.3750049,42.166474 55.6682081,42.166474 Z M4.29710983,20.3583815 C3.59031304,20.3583815 3.01734104,19.7854095 3.01734104,19.0786127 C3.01734104,18.3718159 3.59031304,17.7988439 4.29710983,17.7988439 C5.00390661,17.7988439 5.57687861,18.3718159 5.57687861,19.0786127 C5.57687861,19.7854095 5.00390661,20.3583815 4.29710983,20.3583815 Z M54.6971098,47.3028902 C54.2029267,47.3028902 53.8023121,46.9022756 53.8023121,46.4080925 C53.8023121,45.9139094 54.2029267,45.5132948 54.6971098,45.5132948 C55.1912929,45.5132948 55.5919075,45.9139094 55.5919075,46.4080925 C55.5919075,46.9022756 55.1912929,47.3028902 54.6971098,47.3028902 Z M46.4080925,6.16300578 C45.9139094,6.16300578 45.5132948,5.76239121 45.5132948,5.26820809 C45.5132948,4.77402498 45.9139094,4.3734104 46.4080925,4.3734104 C46.9022756,4.3734104 47.3028902,4.77402498 47.3028902,5.26820809 C47.3028902,5.76239121 46.9022756,6.16300578 46.4080925,6.16300578 Z M13.5572254,55.5919075 C13.0630423,55.5919075 12.6624277,55.1912929 12.6624277,54.6971098 C12.6624277,54.2029267 13.0630423,53.8023121 13.5572254,53.8023121 C14.0514086,53.8023121 14.4520231,54.2029267 14.4520231,54.6971098 C14.4520231,55.1912929 14.0514086,55.5919075 13.5572254,55.5919075 Z M5.26820809,14.4520231 C4.77402498,14.4520231 4.3734104,14.0514086 4.3734104,13.5572254 C4.3734104,13.0630423 4.77402498,12.6624277 5.26820809,12.6624277 C5.76239121,12.6624277 6.16300578,13.0630423 6.16300578,13.5572254 C6.16300578,14.0514086 5.76239121,14.4520231 5.26820809,14.4520231 Z M59.0705202,25.016185 C58.5763371,25.016185 58.1757225,24.6155704 58.1757225,24.1213873 C58.1757225,23.6272042 58.5763371,23.2265896 59.0705202,23.2265896 C59.5647033,23.2265896 59.9653179,23.6272042 59.9653179,24.1213873 C59.9653179,24.6155704 59.5647033,25.016185 59.0705202,25.016185 Z M0.894797688,36.7387283 C0.400614571,36.7387283 -7.10542736e-15,36.3381138 -7.10542736e-15,35.8439306 C-7.10542736e-15,35.3497475 0.400614571,34.9491329 0.894797688,34.9491329 C1.38898081,34.9491329 1.78959538,35.3497475 1.78959538,35.8439306 C1.78959538,36.3381138 1.38898081,36.7387283 0.894797688,36.7387283 Z M35.8439306,59.9653179 C35.3497475,59.9653179 34.9491329,59.5647033 34.9491329,59.0705202 C34.9491329,58.5763371 35.3497475,58.1757225 35.8439306,58.1757225 C36.3381138,58.1757225 36.7387283,58.5763371 36.7387283,59.0705202 C36.7387283,59.5647033 36.3381138,59.9653179 35.8439306,59.9653179 Z M24.1213873,1.78959538 C23.6272042,1.78959538 23.2265896,1.38898081 23.2265896,0.894797688 C23.2265896,0.400614571 23.6272042,0 24.1213873,0 C24.6155704,0 25.016185,0.400614571 25.016185,0.894797688 C25.016185,1.38898081 24.6155704,1.78959538 24.1213873,1.78959538 Z M59.049711,36.8462428 C58.5555279,36.8462428 58.1549133,36.4456282 58.1549133,35.9514451 C58.1549133,35.457262 58.5555279,35.0566474 59.049711,35.0566474 C59.5438941,35.0566474 59.9445087,35.457262 59.9445087,35.9514451 C59.9445087,36.4456282 59.5438941,36.8462428 59.049711,36.8462428 Z M35.9514451,1.81040462 C35.457262,1.81040462 35.0566474,1.40979005 35.0566474,0.915606936 C35.0566474,0.421423819 35.457262,0.0208092486 35.9514451,0.0208092486 C36.4456282,0.0208092486 36.8462428,0.421423819 36.8462428,0.915606936 C36.8462428,1.40979005 36.4456282,1.81040462 35.9514451,1.81040462 Z M24.0138728,59.9445087 C23.5196897,59.9445087 23.1190751,59.5438941 23.1190751,59.049711 C23.1190751,58.5555279 23.5196897,58.1549133 24.0138728,58.1549133 C24.5080559,58.1549133 24.9086705,58.5555279 24.9086705,59.049711 C24.9086705,59.5438941 24.5080559,59.9445087 24.0138728,59.9445087 Z M0.915606936,24.9086705 C0.421423819,24.9086705 0.0208092486,24.5080559 0.0208092486,24.0138728 C0.0208092486,23.5196897 0.421423819,23.1190751 0.915606936,23.1190751 C1.40979005,23.1190751 1.81040462,23.5196897 1.81040462,24.0138728 C1.81040462,24.5080559 1.40979005,24.9086705 0.915606936,24.9086705 Z M54.7560694,14.5456647 C54.2618862,14.5456647 53.8612717,14.1450502 53.8612717,13.6508671 C53.8612717,13.1566839 54.2618862,12.7560694 54.7560694,12.7560694 C55.2502525,12.7560694 55.6508671,13.1566839 55.6508671,13.6508671 C55.6508671,14.1450502 55.2502525,14.5456647 54.7560694,14.5456647 Z M5.20924855,47.2092486 C4.71506544,47.2092486 4.31445087,46.808634 4.31445087,46.3144509 C4.31445087,45.8202677 4.71506544,45.4196532 5.20924855,45.4196532 C5.70343167,45.4196532 6.10404624,45.8202677 6.10404624,46.3144509 C6.10404624,46.808634 5.70343167,47.2092486 5.20924855,47.2092486 Z M46.3144509,55.6508671 C45.8202677,55.6508671 45.4196532,55.2502525 45.4196532,54.7560694 C45.4196532,54.2618862 45.8202677,53.8612717 46.3144509,53.8612717 C46.808634,53.8612717 47.2092486,54.2618862 47.2092486,54.7560694 C47.2092486,55.2502525 46.808634,55.6508671 46.3144509,55.6508671 Z M13.6508671,6.10404624 C13.1566839,6.10404624 12.7560694,5.70343167 12.7560694,5.20924855 C12.7560694,4.71506544 13.1566839,4.31445087 13.6508671,4.31445087 C14.1450502,4.31445087 14.5456647,4.71506544 14.5456647,5.20924855 C14.5456647,5.70343167 14.1450502,6.10404624 13.6508671,6.10404624 Z M22.6959538,36.4127168 C26.2471766,36.4127168 29.1260116,33.5338818 29.1260116,29.982659 C29.1260116,26.4314361 26.2471766,23.5526012 22.6959538,23.5526012 C19.1447309,23.5526012 16.265896,26.4314361 16.265896,29.982659 C16.265896,33.5338818 19.1447309,36.4127168 22.6959538,36.4127168 Z M37.2693642,36.4127168 C40.820587,36.4127168 43.699422,33.5338818 43.699422,29.982659 C43.699422,26.4314361 40.820587,23.5526012 37.2693642,23.5526012 C33.7181413,23.5526012 30.8393064,26.4314361 30.8393064,29.982659 C30.8393064,33.5338818 33.7181413,36.4127168 37.2693642,36.4127168 Z M22.6682081,33.4023121 C20.7795858,33.4023121 19.2485549,31.8712813 19.2485549,29.982659 C19.2485549,28.0940367 20.7795858,26.5630058 22.6682081,26.5630058 C24.5568304,26.5630058 26.0878613,28.0940367 26.0878613,29.982659 C26.0878613,31.8712813 24.5568304,33.4023121 22.6682081,33.4023121 Z M37.2693642,33.4023121 C35.3807419,33.4023121 33.849711,31.8712813 33.849711,29.982659 C33.849711,28.0940367 35.3807419,26.5630058 37.2693642,26.5630058 C39.1579865,26.5630058 40.6890173,28.0940367 40.6890173,29.982659 C40.6890173,31.8712813 39.1579865,33.4023121 37.2693642,33.4023121 Z" id="Combined-Shape" fill="#000000"></path>
        </g>
    </g>
</svg>