<?xml version="1.0" encoding="UTF-8"?>
<svg width="62px" height="62px" viewBox="0 0 62 62" version="1.1" xmlns="http://www.w3.org/2000/svg" xmlns:xlink="http://www.w3.org/1999/xlink">
    <!-- Generator: Sketch 53 (72520) - https://sketchapp.com -->
    <title>usp_04</title>
    <desc>Created with Sketch.</desc>
    <g id="Page-1" stroke="none" stroke-width="1" fill="none" fill-rule="evenodd">
        <path d="M54,46 C58.411,46 62,49.589 62,54 C62,58.411 58.411,62 54,62 L26,62 C21.589,62 18,58.411 18,54 C18,52.273 18.556,50.676 19.491,49.367 C8.122,46.82 0,36.798 0,25 C0,11.215 11.215,0 25,0 C38.785,0 50,11.215 50,25 C50,29.677 48.718,34.17 46.288,38.103 C50.316,38.685 53.49,41.934 53.941,46.003 C53.961,46.003 53.98,46 54,46 Z M2,25 C2,36.265 10.04,45.792 21.124,47.673 C21.976,47.014 22.963,46.527 24.038,46.254 C24.419,41.639 28.29,38 33,38 C35.224,38 37.356,38.828 38.997,40.295 C40.346,39.089 42.052,38.299 43.911,38.073 C46.58,34.221 48,29.714 48,25 C48,12.318 37.682,2 25,2 C12.318,2 2,12.318 2,25 Z M54,60 C57.309,60 60,57.309 60,54 C60,50.691 57.309,48 54,48 C52.374,48 50.852,48.64 49.714,49.802 L48.285,48.402 C49.313,47.352 50.579,46.632 51.961,46.27 C51.595,42.752 48.613,40 45,40 C41.804,40 39.016,42.158 38.221,45.249 L36.284,44.751 C36.564,43.661 37.043,42.665 37.667,41.788 C36.39,40.645 34.731,40 33,40 C29.479,40 26.565,42.616 26.079,46.005 C28.217,46.025 30.217,46.872 31.715,48.402 L30.286,49.802 C29.148,48.64 27.626,48 26,48 C22.691,48 20,50.691 20,54 C20,57.309 22.691,60 26,60 L54,60 Z M55,0 L57,0 L57,2 L55,2 L55,0 Z M51.0492888,2.4647 L52.4634888,1.0505 L53.8776888,2.4647 L52.4634888,3.8789 L51.0492888,2.4647 Z M50,5 L52,5 L52,7 L50,7 L50,5 Z M51.0497,9.5364112 L52.4639,8.1222112 L53.8781,9.5364112 L52.4639,10.9506112 L51.0497,9.5364112 Z M55,10 L57,10 L57,12 L55,12 L55,10 Z M58.1215112,9.536 L59.5357112,8.1218 L60.9499112,9.536 L59.5357112,10.9502 L58.1215112,9.536 Z M60,5 L62,5 L62,7 L60,7 L60,5 Z M58.121,2.4642888 L59.5352,1.0500888 L60.9494,2.4642888 L59.5352,3.8784888 L58.121,2.4642888 Z M5,50 L7,50 L7,52 L5,52 L5,50 Z M1.0495959,52.4649071 L2.4637959,51.0507071 L3.8779959,52.4649071 L2.4637959,53.8791071 L1.0495959,52.4649071 Z M0,55 L2,55 L2,57 L0,57 L0,55 Z M1.0493929,59.5349041 L2.4635929,58.1207041 L3.8777929,59.5349041 L2.4635929,60.9491041 L1.0493929,59.5349041 Z M5,60 L7,60 L7,62 L5,62 L5,60 Z M8.1211041,59.5344929 L9.5353041,58.1202929 L10.9495041,59.5344929 L9.5353041,60.9486929 L8.1211041,59.5344929 Z M10,55 L12,55 L12,57 L10,57 L10,55 Z M8.1214071,52.4643959 L9.5356071,51.0501959 L10.9498071,52.4643959 L9.5356071,53.8785959 L8.1214071,52.4643959 Z M22,13 C18.691,13 16,10.309 16,7 L18,7 C18,9.206 19.794,11 22,11 C24.206,11 26,9.206 26,7 L28,7 C28,10.309 25.309,13 22,13 Z M17,40 C18.654,40 20,38.654 20,37 C20,35.346 18.654,34 17,34 C15.346,34 14,35.346 14,37 L12,37 C12,34.243 14.243,32 17,32 C19.757,32 22,34.243 22,37 C22,39.757 19.757,42 17,42 L17,40 Z M41,36 C39.346,36 38,34.654 38,33 C38,31.346 39.346,30 41,30 L41,32 C40.449,32 40,32.448 40,33 C40,33.552 40.449,34 41,34 L41,36 Z M22,19 C23.654,19 25,20.346 25,22 C25,23.654 23.654,25 22,25 C20.346,25 19,23.654 19,22 C19,20.346 20.346,19 22,19 Z M22,23 C22.551,23 23,22.551 23,22 C23,21.449 22.551,21 22,21 C21.449,21 21,21.449 21,22 C21,22.551 21.449,23 22,23 Z M33,17 L35,17 L35,19 L33,19 L33,17 Z M30,29 L32,29 L32,31 L30,31 L30,29 Z M9,24 L11,24 L11,26 L9,26 L9,24 Z" id="usp_04" fill="#454545" fill-rule="nonzero"></path>
    </g>
</svg>