<?xml version="1.0" encoding="UTF-8"?>
<svg width="62px" height="62px" viewBox="0 0 62 62" version="1.1" xmlns="http://www.w3.org/2000/svg" xmlns:xlink="http://www.w3.org/1999/xlink">
    <!-- Generator: Sketch 53 (72520) - https://sketchapp.com -->
    <title>usp_03</title>
    <desc>Created with Sketch.</desc>
    <g id="Page-1" stroke="none" stroke-width="1" fill="none" fill-rule="evenodd">
        <path d="M47,20.034 C50.788,20.26 54.32,21.787 57.092,24.433 C60.257,27.454 62,31.517 62,35.873 L62,36 L62,37.204 L62,44 C62,44.919 61.576,45.733 60.923,46.283 C60.574,47.733 60.146,49.152 59.638,50.496 C59.192,51.675 58.191,52.549 57,52.868 L57,57.034 C57,59.772 54.757,62 52,62 L40,62 C37.243,62 35,59.772 35,57.034 L35,52.868 C33.808,52.549 32.807,51.674 32.362,50.495 C30.817,46.41 30,41.793 30,37.146 L30,36.292 C30,27.644 36.572,20.556 45,20.04 L45,17.899 C42.721,17.434 41,15.414 41,13 C41,11.484 41.521,9.997 42.468,8.814 L46,4.399 L49.532,8.814 C50.479,9.997 51,11.484 51,13 C51,15.415 49.279,17.434 47,17.899 L47,20.034 Z M43,13 C43,14.302 43.839,15.402 45,15.816 L45,13 L47,13 L47,15.816 C48.161,15.402 49,14.302 49,13 C49,11.937 48.634,10.894 47.97,10.063 L46,7.601 L44.03,10.063 C43.366,10.894 43,11.937 43,13 Z M52,60 C53.654,60 55,58.669 55,57.034 L55,53 L53,53 L53,56 L51,56 L51,55 L49,55 L49,57 L47,57 L47,55 L45,55 L45,57 L43,57 L43,55 L41,55 L41,56 L39,56 L39,53 L37,53 L37,57.034 C37,58.669 38.346,60 40,60 L52,60 Z M57.767,49.79 C58.11,48.882 58.402,47.932 58.67,46.967 C57.172,46.8 56,45.541 56,44 L56,33 C56,32.449 55.552,32 55,32 C54.448,32 54,32.449 54,33 L54,37 C54,38.654 52.654,40 51,40 C49.346,40 48,38.654 48,37 L48,22.145 C47.124,22.022 46.23,21.973 45.322,22.017 C37.852,22.365 32,28.636 32,36.293 L32,37.147 C32,41.555 32.772,45.927 34.233,49.789 C34.507,50.514 35.217,51 36,51 L37,51 L41,51 L41,53 L51,53 L51,51 L55,51 L56,51 C56.783,51 57.493,50.514 57.767,49.79 Z M60,36 L60,35.873 C60,32.068 58.477,28.52 55.711,25.879 C54.068,24.311 52.116,23.203 50,22.581 L50,37 C50,37.551 50.448,38 51,38 C51.552,38 52,37.551 52,37 L52,33 C52,31.346 53.346,30 55,30 C56.654,30 58,31.346 58,33 L58,44 C58,44.551 58.448,45 59,45 C59.552,45 60,44.551 60,44 L60,37.204 L60,36 Z M44,39.67 C44,40.84 43.377,41.94 42.375,42.542 L39.073,44.522 C38.552,44.835 37.956,45 37.35,45 C35.503,45 34,43.498 34,41.651 L34,37.349 C34,35.502 35.503,34 37.35,34 L40.65,34 C42.497,34 44,35.502 44,37.349 L44,39.67 Z M42,39.67 L42.001,39.67 L42.001,37.349 C42.001,36.605 41.395,36 40.651,36 L37.35,36 C36.605,36 36,36.605 36,37.349 L36,41.651 C36,42.395 36.605,43 37.35,43 C37.594,43 37.833,42.934 38.043,42.807 L41.345,40.827 C41.749,40.585 42,40.141 42,39.67 Z M46,41.333 L49.517,46.023 C49.828,46.438 50,46.952 50,47.471 L50,47.586 C50,48.917 48.917,50 47.586,50 C47.005,50 46.437,49.785 46,49.406 C45.564,49.785 44.995,50 44.414,50 C43.083,50 42,48.917 42,47.586 L42,47.471 C42,46.953 42.172,46.438 42.483,46.023 L46,41.333 Z M48,47.586 L48,47.471 C48,47.383 47.971,47.294 47.917,47.223 L46,44.667 L44.083,47.223 C44.029,47.294 44,47.383 44,47.471 L44,47.586 C44,47.924 44.471,48.116 44.706,47.879 L46,46.586 L47.293,47.879 C47.531,48.117 48.001,47.924 48,47.586 Z M28,20 L28,60 L30,60 L30,62 L4,62 L4,60 L6,60 L6,46.816 C4.839,46.402 4,45.302 4,44 L4,25 C4,22.243 6.243,20 9,20 L16,20 L16,18.899 C13.721,18.434 12,16.414 12,14 C12,12.484 12.521,10.997 13.468,9.814 L17,5.399 L20.532,9.814 C21.479,10.997 22,12.484 22,14 C22,16.415 20.279,18.434 18,18.899 L18,20 L28,20 Z M14,14 C14,15.302 14.839,16.402 16,16.816 L16,14 L18,14 L18,16.816 C19.161,16.402 20,15.302 20,14 C20,12.937 19.634,11.894 18.97,11.063 L17,8.601 L15.03,11.063 C14.366,11.894 14,12.937 14,14 Z M8,46.816 L8,60 L26,60 L26,22 L9,22 C7.346,22 6,23.346 6,25 L6,44 C6,44.551 6.448,45 7,45 C7.552,45 8,44.551 8,44 L8,33 C8,31.346 9.346,30 11,30 C12.654,30 14,31.346 14,33 L14,37 C14,37.551 14.448,38 15,38 C15.552,38 16,37.551 16,37 L16,24 L18,24 L18,37 C18,38.654 16.654,40 15,40 C13.346,40 12,38.654 12,37 L12,33 C12,32.449 11.552,32 11,32 C10.448,32 10,32.449 10,33 L10,44 C10,45.302 9.161,46.402 8,46.816 Z M0,14 L2,14 L2,16 L0,16 L0,14 Z M2,12 L4,12 L4,14 L2,14 L2,12 Z M2,16 L4,16 L4,18 L2,18 L2,16 Z M4,14 L6,14 L6,16 L4,16 L4,14 Z M28,2 L30,2 L30,4 L28,4 L28,2 Z M30,0 L32,0 L32,2 L30,2 L30,0 Z M30,4 L32,4 L32,6 L30,6 L30,4 Z M32,2 L34,2 L34,4 L32,4 L32,2 Z M56,7 L58,7 L58,9 L56,9 L56,7 Z M58,5 L60,5 L60,7 L58,7 L58,5 Z M58,9 L60,9 L60,11 L58,11 L58,9 Z M60,7 L62,7 L62,9 L60,9 L60,7 Z M0,60 L2,60 L2,62 L0,62 L0,60 Z M32,60 L34,60 L34,62 L32,62 L32,60 Z" id="usp_03" fill="#454545" fill-rule="nonzero"></path>
    </g>
</svg>