<?xml version="1.0" encoding="UTF-8"?>
<svg width="62px" height="62px" viewBox="0 0 62 62" version="1.1" xmlns="http://www.w3.org/2000/svg" xmlns:xlink="http://www.w3.org/1999/xlink">
    <!-- Generator: Sketch 53 (72520) - https://sketchapp.com -->
    <title>usp_02</title>
    <desc>Created with Sketch.</desc>
    <g id="Page-1" stroke="none" stroke-width="1" fill="none" fill-rule="evenodd">
        <path d="M56,56 L56,60 L58,60 L58,62 L4,62 L4,60 L6,60 L6,56 L8.382,56 L10.382,52 L15,52 L15,27 L11,27 L11,13 L15.297,13 C16.718,5.53 23.319,0 31,0 C38.681,0 45.282,5.53 46.703,13 L51,13 L51,27 L47,27 L47,52 L51.618,52 L53.618,56 L56,56 Z M13,25 L15,25 L15,17 L19,17 L19,16 C19,9.383 24.383,4 31,4 C37.617,4 43,9.383 43,16 L43,17 L47,17 L47,25 L49,25 L49,15 L44.976,15 L44.86,14.132 C43.937,7.216 37.978,2 31,2 C24.022,2 18.063,7.216 17.14,14.132 L17.024,15 L13,15 L13,25 Z M45,29 L43,29 L43,27 L45,27 L45,19 L41,19 L41,16 C41,10.486 36.514,6 31,6 C25.486,6 21,10.486 21,16 L21,19 L17,19 L17,27 L19,27 L19,29 L17,29 L17,31 L19,31 L19,33 L17,33 L17,52 L45,52 L45,33 L43,33 L43,31 L45,31 L45,29 Z M54,60 L54,58 L17,58 L17,56 L51.382,56 L50.382,54 L11.618,54 L10.618,56 L15,56 L15,58 L8,58 L8,60 L54,60 Z M34,12 L34,17 L38,17 L38,23 L34,23 L34,38 L28,38 L28,23 L24,23 L24,17 L28,17 L28,12 L34,12 Z M36,19 L32,19 L32,14 L30,14 L30,19 L26,19 L26,21 L30,21 L30,36 L32,36 L32,21 L36,21 L36,19 Z M24,40 L38,40 L38,42 L24,42 L24,40 Z M24,44 L38,44 L38,46 L24,46 L24,44 Z M28,48 L34,48 L34,50 L28,50 L28,48 Z M24,48 L26,48 L26,50 L24,50 L24,48 Z M36,48 L38,48 L38,50 L36,50 L36,48 Z M0,60 L2,60 L2,62 L0,62 L0,60 Z M60,60 L62,60 L62,62 L60,62 L60,60 Z" id="usp_02" fill="#454545" fill-rule="nonzero"></path>
    </g>
</svg>