<?xml version="1.0" encoding="UTF-8"?>
<svg width="62px" height="62px" viewBox="0 0 62 62" version="1.1" xmlns="http://www.w3.org/2000/svg" xmlns:xlink="http://www.w3.org/1999/xlink">
    <!-- Generator: Sketch 53 (72520) - https://sketchapp.com -->
    <title>usp_01</title>
    <desc>Created with Sketch.</desc>
    <g id="Page-1" stroke="none" stroke-width="1" fill="none" fill-rule="evenodd">
        <path d="M15,43 L15,47 L7,47 L7,43 C7,40.794 8.794,39 11,39 C13.206,39 15,40.794 15,43 Z M13,45 L13,43 C13,41.897 12.103,41 11,41 C9.897,41 9,41.897 9,43 L9,45 L13,45 Z M31,25 C33.757,25 36,27.243 36,30 L36,37 L26,37 L26,30 C26,27.243 28.243,25 31,25 Z M34,35 L34,30 C34,28.346 32.654,27 31,27 C29.346,27 28,28.346 28,30 L28,35 L34,35 Z M62,28 L62,37 L60,37 L60,62 L38,62 L24,62 L2,62 L2,37 L0,37 L0,28 L6,28 L6,31 L8,31 L8,28 L14,28 L14,31 L16,31 L16,28 L18,28 L18,23 L16,23 L16,14 L18.514,14 L28.596,1.168 C29.18,0.426 30.056,0 31,0 C31.944,0 32.82,0.426 33.404,1.168 L43.486,14 L46,14 L46,23 L44,23 L44,28 L46,28 L46,31 L48,31 L48,28 L54,28 L54,31 L56,31 L56,28 L62,28 Z M30.168,2.404 L21.057,14 L22,14 L22,17 L24,17 L24,14 L30,14 L30,17 L32,17 L32,14 L38,14 L38,17 L40,17 L40,14 L40.943,14 L31.831,2.404 C31.427,1.891 30.572,1.89 30.168,2.404 Z M18,16 L18,21 L44,21 L44,16 L42,16 L42,19 L36,19 L36,16 L34,16 L34,19 L28,19 L28,16 L26,16 L26,19 L20,19 L20,16 L18,16 Z M2,30 L2,35 L20,35 L20,30 L18,30 L18,33 L12,33 L12,30 L10,30 L10,33 L4,33 L4,30 L2,30 Z M4,37 L4,60 L7,60 L7,56 C7,53.794 8.794,52 11,52 C13.206,52 15,53.794 15,56 L15,60 L18,60 L18,37 L4,37 Z M13,60 L13,56 C13,54.897 12.103,54 11,54 C9.897,54 9,54.897 9,56 L9,60 L13,60 Z M26,60 L36,60 L36,51 L26,51 L26,60 Z M36,49 L36,46 L34,46 L34,49 L36,49 Z M32,49 L32,46 L30,46 L30,49 L32,49 Z M28,49 L28,46 L26,46 L26,49 L28,49 Z M38,51 L38,60 L42,60 L42,37 L40,37 L40,28 L42,28 L42,23 L20,23 L20,28 L22,28 L22,37 L20,37 L20,60 L24,60 L24,51 L22,51 L22,49 L24,49 L24,44 L38,44 L38,49 L40,49 L40,51 L38,51 Z M53,60 L53,56 C53,54.897 52.103,54 51,54 C49.897,54 49,54.897 49,56 L49,60 L53,60 Z M58,60 L58,37 L44,37 L44,60 L47,60 L47,56 C47,53.794 48.794,52 51,52 C53.206,52 55,53.794 55,56 L55,60 L58,60 Z M60,35 L60,30 L58,30 L58,33 L52,33 L52,30 L50,30 L50,33 L44,33 L44,30 L42,30 L42,35 L60,35 Z M55,43 L55,47 L47,47 L47,43 C47,40.794 48.794,39 51,39 C53.206,39 55,40.794 55,43 Z M53,45 L53,43 C53,41.897 52.103,41 51,41 C49.897,41 49,41.897 49,43 L49,45 L53,45 Z" id="usp_01" fill="#454545" fill-rule="nonzero"></path>
    </g>
</svg>